# xmcd
#
# Track frame offsets:
#	150
#	21694
#	36229
#	53543
#	70080
#	85419
#	102557
#	120742
#	132938
#	149618
#	172896
#	195140
#	210154
#
# Disc length: 3001 seconds
#
# Revision: 6
# Processed by: cddbd v1.5.2PL0 Copyright (c) Steve Scherf et al.
# Submitted via: audiograbber 1.83.01
#
DISCID=b40bb70d
DTITLE=James Morrison - The Awakening
DYEAR=2011
DGENRE=Pop
TTITLE0=In My Dreams
TTITLE1=6 Weeks
TTITLE2=I Won't Let You Go
TTITLE3=Up
TTITLE4=Slave To The Music
TTITLE5=Person I Should Have Been
TTITLE6=Say Something Now
TTITLE7=Beautiful Life
TTITLE8=Forever
TTITLE9=The Awakening
TTITLE10=Right By Your Side
TTITLE11=One Life
TTITLE12=All Around The World
EXTD=YEAR: 2011
EXTT0=
EXTT1=
EXTT2=
EXTT3=
EXTT4=
EXTT5=
EXTT6=
EXTT7=
EXTT8=
EXTT9=
EXTT10=
EXTT11=
EXTT12=
PLAYORDER=
